<svg id="svg" version="1.1" xmlns="http://www.w3.org/2000/svg" xmlns:xlink="http://www.w3.org/1999/xlink" width="400" height="400" viewBox="0, 0, 400,400"><g id="svgg"><path id="path0" d="M264.167 62.127 C 253.031 63.706,245.881 71.749,244.787 83.925 C 243.305 100.417,254.895 111.993,270.803 109.908 C 282.926 108.318,290.216 99.299,290.262 85.833 C 290.316 69.722,279.555 59.946,264.167 62.127 M125.384 62.937 C 125.283 63.126,124.666 64.772,124.012 66.594 C 122.813 69.937,118.828 80.899,117.691 83.981 C 117.353 84.898,115.184 90.852,112.870 97.213 C 110.557 103.573,108.622 108.886,108.571 109.018 C 108.497 109.213,109.577 109.259,114.193 109.258 L 119.907 109.257 121.485 104.212 L 123.063 99.167 131.405 99.119 L 139.747 99.070 140.721 102.081 C 141.257 103.738,141.999 106.030,142.369 107.176 L 143.044 109.259 148.744 109.259 C 151.879 109.259,154.444 109.225,154.444 109.182 C 154.444 109.106,153.824 107.354,149.261 94.537 C 147.956 90.870,145.497 83.954,143.797 79.167 C 142.098 74.380,140.348 69.463,139.908 68.241 C 139.469 67.019,138.841 65.248,138.513 64.306 L 137.917 62.593 131.743 62.593 C 125.916 62.593,125.558 62.612,125.384 62.937 M159.938 62.716 C 159.677 62.977,159.812 91.456,160.085 93.704 C 161.342 104.060,166.455 109.140,176.526 110.038 C 184.964 110.791,192.078 107.952,195.339 102.532 C 198.236 97.716,198.564 94.923,198.482 75.741 L 198.426 62.685 193.203 62.636 L 187.981 62.587 187.920 77.914 C 187.852 94.919,187.885 94.451,186.571 97.043 C 183.812 102.488,174.560 102.413,171.799 96.923 C 170.459 94.260,170.374 93.043,170.372 76.620 L 170.370 62.593 165.216 62.593 C 162.381 62.593,160.006 62.648,159.938 62.716 M204.259 66.949 L 204.259 71.305 210.833 71.255 L 217.408 71.204 217.407 90.231 L 217.407 109.259 222.684 109.259 L 227.961 109.259 228.008 90.269 L 228.056 71.278 234.676 71.292 L 241.296 71.305 241.296 66.949 L 241.296 62.593 222.778 62.593 L 204.259 62.593 204.259 66.949 M271.324 71.474 C 276.634 73.119,279.450 78.667,279.211 87.016 C 278.971 95.389,275.440 100.159,268.882 100.966 C 259.981 102.062,253.810 92.600,256.175 81.481 C 257.866 73.526,264.278 69.290,271.324 71.474 M131.667 72.130 C 131.676 73.046,132.165 74.866,133.606 79.352 C 136.696 88.966,137.256 90.769,137.177 90.848 C 137.131 90.894,134.467 90.909,131.258 90.882 L 125.422 90.833 126.677 86.944 C 130.802 74.163,130.981 73.569,131.203 71.959 C 131.339 70.975,131.656 71.091,131.667 72.130 M197.587 110.320 C 197.584 110.399,197.586 114.069,197.592 118.476 C 197.601 124.833,197.554 126.503,197.367 126.557 C 197.236 126.594,196.046 126.714,194.722 126.824 C 185.645 127.575,173.292 131.382,166.667 135.468 C 166.310 135.688,165.519 136.144,164.907 136.481 C 153.286 142.900,141.120 156.622,135.939 169.154 C 135.605 169.961,135.266 170.753,135.185 170.913 C 135.052 171.176,134.618 172.274,134.265 173.241 C 133.762 174.617,133.651 174.963,133.569 175.419 C 133.518 175.700,133.402 175.976,133.312 176.032 C 133.222 176.087,133.148 176.292,133.148 176.486 C 133.148 176.680,133.032 177.113,132.891 177.447 C 132.499 178.374,131.449 182.691,131.099 184.815 C 130.555 188.111,130.342 189.723,130.186 191.718 C 130.092 192.918,129.965 193.980,129.904 194.079 C 129.834 194.192,126.069 194.259,119.804 194.259 L 109.815 194.259 109.815 198.056 L 109.815 201.852 119.819 201.852 L 129.824 201.852 130.005 202.327 C 130.104 202.588,130.185 203.380,130.185 204.086 C 130.185 204.792,130.303 206.099,130.447 206.991 C 130.591 207.882,130.805 209.278,130.923 210.093 C 131.116 211.424,131.308 212.360,131.873 214.722 C 131.970 215.130,132.087 215.630,132.133 215.833 C 132.453 217.267,134.222 222.843,134.717 223.981 C 134.849 224.287,135.192 225.120,135.479 225.833 C 137.634 231.194,142.825 239.748,146.275 243.623 C 146.643 244.036,147.316 244.828,147.771 245.382 C 149.065 246.959,151.977 249.900,153.688 251.358 C 154.546 252.088,155.639 253.019,156.117 253.426 C 162.554 258.906,173.324 264.593,181.389 266.768 C 183.990 267.470,185.308 267.796,185.760 267.850 C 186.026 267.882,186.329 267.961,186.433 268.026 C 186.538 268.091,187.154 268.227,187.803 268.328 C 188.451 268.430,189.356 268.589,189.815 268.681 C 191.124 268.946,192.316 269.079,194.880 269.250 C 196.190 269.338,197.335 269.483,197.425 269.573 C 197.515 269.664,197.611 274.234,197.637 279.730 L 197.685 289.722 201.481 289.722 L 205.278 289.722 205.370 279.631 L 205.463 269.541 206.019 269.422 C 206.324 269.357,207.183 269.293,207.927 269.281 C 209.221 269.260,210.753 269.078,212.963 268.682 C 213.523 268.582,214.506 268.423,215.146 268.330 C 215.787 268.237,216.394 268.110,216.494 268.048 C 216.595 267.986,216.904 267.904,217.181 267.867 C 217.656 267.802,219.156 267.426,221.481 266.789 C 229.203 264.672,238.168 260.103,245.252 254.675 C 255.952 246.476,265.177 233.664,269.087 221.574 C 269.284 220.963,269.521 220.296,269.613 220.093 C 269.705 219.889,269.919 219.181,270.089 218.519 C 270.259 217.856,270.470 217.065,270.557 216.759 C 270.863 215.693,271.151 214.544,271.229 214.080 C 271.272 213.822,271.352 213.486,271.406 213.333 C 271.554 212.920,272.057 210.202,272.143 209.352 C 272.184 208.944,272.266 208.408,272.325 208.160 C 272.383 207.912,272.544 206.478,272.682 204.973 C 272.819 203.469,272.985 202.151,273.051 202.045 C 273.130 201.916,275.840 201.852,281.215 201.852 L 289.259 201.852 289.259 198.056 L 289.259 194.259 281.226 194.259 C 271.981 194.259,272.874 194.492,272.709 192.037 C 272.498 188.887,272.178 186.620,271.480 183.333 C 271.383 182.875,271.269 182.289,271.227 182.032 C 271.142 181.512,270.844 180.344,270.472 179.074 C 270.338 178.616,270.125 177.866,269.998 177.407 C 269.654 176.167,269.248 174.949,269.058 174.586 C 268.965 174.409,268.889 174.157,268.889 174.027 C 268.889 173.818,268.350 172.426,267.474 170.370 C 267.322 170.014,267.131 169.556,267.049 169.352 C 257.988 146.639,233.683 129.108,208.056 126.800 L 205.463 126.567 205.370 118.422 L 205.278 110.278 201.435 110.228 C 199.322 110.200,197.590 110.242,197.587 110.320 M197.550 138.428 L 197.600 142.500 201.439 142.472 L 205.278 142.444 205.328 138.419 L 205.378 134.394 207.180 134.503 C 208.171 134.563,210.039 134.780,211.331 134.985 C 214.409 135.475,214.253 135.444,216.389 135.987 C 219.122 136.682,220.125 136.964,221.667 137.468 C 222.994 137.902,223.436 138.070,224.750 138.637 C 225.071 138.776,225.385 138.889,225.447 138.889 C 225.761 138.889,231.410 141.629,233.333 142.714 C 242.404 147.832,251.280 156.662,256.575 165.833 C 257.619 167.643,259.815 171.892,259.815 172.104 C 259.815 172.163,260.013 172.651,260.255 173.189 C 261.172 175.226,262.792 179.865,263.184 181.574 C 263.576 183.287,263.700 183.849,263.899 184.815 C 264.014 185.375,264.176 186.125,264.260 186.481 C 264.670 188.223,265.242 193.751,265.050 194.120 C 265.011 194.197,263.337 194.259,261.332 194.259 L 257.685 194.259 257.685 198.148 L 257.685 202.037 261.400 202.037 L 265.114 202.037 265.049 203.750 C 265.014 204.692,264.901 205.796,264.799 206.204 C 264.696 206.611,264.537 207.528,264.444 208.241 C 264.151 210.494,263.897 211.860,263.705 212.220 C 263.602 212.411,263.519 212.755,263.519 212.984 C 263.519 213.213,263.438 213.656,263.340 213.968 C 263.242 214.281,262.903 215.412,262.587 216.481 C 255.719 239.721,234.545 258.052,210.926 261.205 C 210.468 261.266,209.593 261.391,208.981 261.482 C 208.370 261.573,207.329 261.667,206.667 261.691 L 205.463 261.735 205.413 258.044 L 205.363 254.352 201.478 254.352 L 197.593 254.352 197.593 258.009 L 197.593 261.667 196.484 261.667 C 192.094 261.667,183.183 259.554,177.295 257.116 C 166.661 252.714,158.597 246.562,150.816 236.913 C 148.268 233.753,144.620 227.547,142.890 223.426 C 142.505 222.509,142.078 221.509,141.942 221.204 C 141.644 220.534,140.320 216.536,140.011 215.370 C 139.889 214.912,139.697 214.245,139.584 213.889 C 139.370 213.211,139.176 212.279,138.888 210.539 C 138.794 209.969,138.631 209.276,138.525 208.999 C 138.420 208.721,138.333 208.194,138.333 207.826 C 138.333 207.459,138.204 206.469,138.046 205.625 C 137.888 204.782,137.784 203.609,137.815 203.018 L 137.870 201.944 141.435 201.894 L 145.000 201.844 145.000 197.959 L 145.000 194.074 141.389 194.074 L 137.778 194.074 137.779 193.009 C 137.779 192.424,137.869 191.444,137.978 190.833 C 138.086 190.222,138.240 189.130,138.320 188.406 C 138.399 187.682,138.518 187.002,138.584 186.895 C 138.650 186.789,138.784 186.214,138.882 185.619 C 141.444 170.003,152.634 153.407,166.574 144.545 C 167.185 144.157,167.911 143.684,168.187 143.494 C 168.463 143.304,168.722 143.148,168.762 143.148 C 168.803 143.148,169.535 142.747,170.390 142.258 C 171.804 141.448,174.427 140.141,175.833 139.546 C 176.139 139.417,176.597 139.218,176.852 139.105 C 177.106 138.992,177.731 138.743,178.241 138.553 C 178.750 138.363,179.333 138.139,179.537 138.057 C 179.741 137.975,180.068 137.877,180.263 137.839 C 180.459 137.801,180.709 137.698,180.819 137.610 C 180.929 137.522,181.307 137.388,181.661 137.313 C 182.014 137.237,182.430 137.109,182.587 137.028 C 184.161 136.209,195.096 134.200,197.222 134.339 C 197.459 134.354,197.507 134.964,197.550 138.428 M181.218 158.530 C 177.325 159.181,175.989 160.094,169.091 166.811 L 164.664 171.122 164.534 170.329 C 163.984 166.993,161.184 165.888,156.419 167.129 C 150.262 168.733,151.347 174.506,158.227 176.749 C 158.524 176.846,158.091 177.364,155.621 179.868 C 148.816 186.767,148.076 189.050,148.194 202.778 C 148.279 212.781,148.347 213.135,150.814 216.417 L 151.667 217.551 151.668 220.766 C 151.671 225.120,152.331 226.511,154.984 227.756 C 156.359 228.400,165.034 228.516,166.389 227.908 C 168.825 226.814,170.185 224.765,170.185 222.189 L 170.185 221.296 201.455 221.296 L 232.724 221.296 232.831 222.703 C 233.148 226.896,235.151 228.208,241.383 228.303 C 249.677 228.431,251.291 227.197,251.294 220.727 L 251.296 217.472 252.149 216.375 C 254.582 213.245,254.695 212.656,254.773 202.650 C 254.856 191.999,254.732 191.122,252.500 186.574 C 251.182 183.890,250.165 182.592,246.939 179.477 L 244.252 176.883 244.950 176.657 C 251.689 174.475,252.581 168.718,246.432 167.093 C 242.197 165.974,239.061 167.030,238.522 169.757 C 238.405 170.349,238.294 170.890,238.275 170.960 C 238.256 171.030,235.908 168.835,233.057 166.082 C 226.872 160.110,225.696 159.316,221.990 158.613 C 220.342 158.301,183.042 158.224,181.218 158.530 M223.412 165.000 C 224.901 165.775,225.461 166.268,231.411 172.037 L 237.808 178.241 219.645 178.288 C 209.655 178.314,193.305 178.314,183.311 178.288 L 165.140 178.241 171.412 172.156 C 178.102 165.667,178.509 165.322,180.370 164.569 L 181.574 164.081 201.693 164.124 L 221.811 164.167 223.412 165.000 M159.730 187.138 C 162.572 187.877,167.899 191.045,170.282 193.414 C 172.954 196.071,172.850 197.596,169.938 198.495 C 166.872 199.443,157.739 199.450,155.851 198.508 C 149.547 195.359,152.952 185.378,159.730 187.138 M246.986 187.446 C 251.521 189.576,251.552 196.252,247.037 198.529 C 244.385 199.867,233.191 199.251,231.305 197.664 C 229.380 196.045,232.813 192.205,239.184 188.851 C 243.033 186.825,244.935 186.483,246.986 187.446 M225.864 195.972 C 225.525 199.899,223.685 203.230,221.172 204.467 L 220.278 204.907 201.481 204.907 L 182.685 204.907 181.808 204.502 C 179.233 203.313,177.037 199.145,177.037 195.447 L 177.037 194.630 201.509 194.630 L 225.980 194.630 225.864 195.972 M171.412 210.880 L 175.251 215.278 168.351 215.326 C 160.817 215.379,160.952 215.394,158.695 214.255 C 155.371 212.577,154.237 209.369,156.121 206.974 L 156.508 206.481 162.041 206.481 L 167.573 206.481 171.412 210.880 M246.842 206.974 C 248.855 209.533,247.553 212.672,243.714 214.516 L 242.130 215.278 234.954 215.330 C 231.007 215.359,227.778 215.332,227.778 215.270 C 227.778 215.144,233.531 208.490,234.697 207.269 L 235.447 206.481 240.951 206.481 L 246.455 206.481 246.842 206.974 M223.889 209.720 C 223.889 212.059,221.723 214.501,219.101 215.118 C 217.709 215.446,185.566 215.487,184.037 215.162 C 182.199 214.773,180.747 213.765,179.872 212.270 C 179.380 211.431,178.829 209.506,179.002 209.227 C 179.053 209.143,189.174 209.074,201.492 209.074 L 223.889 209.074 223.889 209.720 M107.037 314.074 L 107.037 337.407 112.315 337.407 L 117.593 337.407 117.593 327.870 L 117.593 318.333 127.221 318.333 L 136.848 318.333 136.896 327.824 L 136.944 337.315 142.176 337.364 L 147.407 337.413 147.407 314.077 L 147.407 290.741 142.130 290.741 L 136.852 290.741 136.852 300.000 L 136.852 309.259 127.222 309.259 L 117.593 309.259 117.593 300.000 L 117.593 290.741 112.315 290.741 L 107.037 290.741 107.037 314.074 M157.594 305.324 C 157.595 313.804,157.673 320.605,157.781 321.574 C 159.016 332.685,165.293 338.167,176.754 338.145 C 187.156 338.124,193.215 333.643,195.516 324.268 L 195.995 322.315 196.099 306.528 L 196.204 290.741 190.985 290.741 L 185.766 290.741 185.691 305.880 C 185.608 322.599,185.636 322.177,184.399 324.803 C 181.921 330.061,173.334 330.639,170.069 325.769 C 168.224 323.015,168.156 322.286,168.152 305.139 L 168.148 290.741 162.870 290.741 L 157.593 290.741 157.594 305.324 M206.481 314.071 L 206.481 337.407 211.396 337.407 L 216.311 337.407 216.257 320.833 C 216.228 311.718,216.217 304.259,216.234 304.259 C 216.251 304.259,216.559 304.780,216.920 305.417 C 217.281 306.053,219.739 309.866,222.383 313.889 C 225.026 317.912,229.580 324.850,232.502 329.306 L 237.816 337.407 243.074 337.407 L 248.333 337.407 248.333 314.074 L 248.333 290.741 243.421 290.741 L 238.509 290.741 238.560 306.744 C 238.588 315.546,238.582 322.718,238.546 322.682 C 238.510 322.645,237.968 321.795,237.342 320.791 C 236.716 319.787,234.370 316.156,232.130 312.723 C 229.889 309.289,225.761 302.960,222.957 298.657 L 217.858 290.833 212.170 290.784 L 206.481 290.735 206.481 314.071 M254.815 295.000 L 254.815 299.259 261.389 299.259 L 267.963 299.259 267.963 318.333 L 267.963 337.407 273.241 337.407 L 278.519 337.407 278.519 318.333 L 278.519 299.259 285.185 299.259 L 291.852 299.259 291.852 295.000 L 291.852 290.741 273.333 290.741 L 254.815 290.741 254.815 295.000 " stroke="none" fill="#f9fbfb" fill-rule="evenodd"></path><path id="path1" d="M0.000 200.000 L 0.000 400.000 200.000 400.000 L 400.000 400.000 400.000 200.000 L 400.000 0.000 200.000 0.000 L 0.000 0.000 0.000 200.000 M271.237 62.043 C 283.333 63.641,290.307 72.362,290.262 85.833 C 290.216 99.299,282.926 108.318,270.803 109.908 C 253.421 112.186,241.375 97.938,245.361 79.815 C 248.025 67.700,258.676 60.384,271.237 62.043 M138.513 64.306 C 138.841 65.248,139.469 67.019,139.908 68.241 C 140.348 69.463,142.098 74.380,143.797 79.167 C 145.497 83.954,147.956 90.870,149.261 94.537 C 153.824 107.354,154.444 109.106,154.444 109.182 C 154.444 109.225,151.879 109.259,148.744 109.259 L 143.044 109.259 142.369 107.176 C 141.999 106.030,141.257 103.738,140.721 102.081 L 139.747 99.070 131.405 99.119 L 123.063 99.167 121.485 104.212 L 119.907 109.257 114.193 109.258 C 109.577 109.259,108.497 109.213,108.571 109.018 C 108.622 108.886,110.557 103.573,112.870 97.213 C 115.184 90.852,117.353 84.898,117.691 83.981 C 118.828 80.899,122.813 69.937,124.012 66.594 C 124.666 64.772,125.283 63.126,125.384 62.937 C 125.558 62.612,125.916 62.593,131.743 62.593 L 137.917 62.593 138.513 64.306 M170.372 76.620 C 170.374 93.043,170.459 94.260,171.799 96.923 C 174.560 102.413,183.812 102.488,186.571 97.043 C 187.885 94.451,187.852 94.919,187.920 77.914 L 187.981 62.587 193.203 62.636 L 198.426 62.685 198.482 75.741 C 198.564 94.923,198.236 97.716,195.339 102.532 C 192.078 107.952,184.964 110.791,176.526 110.038 C 166.455 109.140,161.342 104.060,160.085 93.704 C 159.812 91.456,159.677 62.977,159.938 62.716 C 160.006 62.648,162.381 62.593,165.216 62.593 L 170.370 62.593 170.372 76.620 M241.296 66.949 L 241.296 71.305 234.676 71.292 L 228.056 71.278 228.008 90.269 L 227.961 109.259 222.684 109.259 L 217.407 109.259 217.407 90.231 L 217.408 71.204 210.833 71.255 L 204.259 71.305 204.259 66.949 L 204.259 62.593 222.778 62.593 L 241.296 62.593 241.296 66.949 M265.620 71.116 C 259.422 72.234,255.830 77.746,255.846 86.111 C 255.865 95.887,261.157 101.918,268.882 100.966 C 275.440 100.159,278.971 95.389,279.211 87.016 C 279.526 75.997,274.054 69.595,265.620 71.116 M131.203 71.959 C 130.981 73.569,130.802 74.163,126.677 86.944 L 125.422 90.833 131.258 90.882 C 134.467 90.909,137.131 90.894,137.177 90.848 C 137.256 90.769,136.696 88.966,133.606 79.352 C 132.165 74.866,131.676 73.046,131.667 72.130 C 131.656 71.091,131.339 70.975,131.203 71.959 M205.370 118.422 L 205.463 126.567 208.056 126.800 C 220.855 127.953,233.256 132.630,243.656 140.228 C 253.666 147.541,262.969 159.123,267.049 169.352 C 267.131 169.556,267.322 170.014,267.474 170.370 C 268.350 172.426,268.889 173.818,268.889 174.027 C 268.889 174.157,268.965 174.409,269.058 174.586 C 269.248 174.949,269.654 176.167,269.998 177.407 C 270.125 177.866,270.338 178.616,270.472 179.074 C 270.844 180.344,271.142 181.512,271.227 182.032 C 271.269 182.289,271.383 182.875,271.480 183.333 C 272.178 186.620,272.498 188.887,272.709 192.037 C 272.874 194.492,271.981 194.259,281.226 194.259 L 289.259 194.259 289.259 198.056 L 289.259 201.852 281.215 201.852 C 275.840 201.852,273.130 201.916,273.051 202.045 C 272.985 202.151,272.819 203.469,272.682 204.973 C 272.544 206.478,272.383 207.912,272.325 208.160 C 272.266 208.408,272.184 208.944,272.143 209.352 C 272.057 210.202,271.554 212.920,271.406 213.333 C 271.352 213.486,271.272 213.822,271.229 214.080 C 271.151 214.544,270.863 215.693,270.557 216.759 C 270.470 217.065,270.259 217.856,270.089 218.519 C 269.919 219.181,269.705 219.889,269.613 220.093 C 269.521 220.296,269.284 220.963,269.087 221.574 C 267.390 226.822,264.660 232.275,260.975 237.778 C 257.806 242.511,255.861 244.845,251.640 248.983 C 248.394 252.163,247.559 252.908,245.252 254.675 C 238.168 260.103,229.203 264.672,221.481 266.789 C 219.156 267.426,217.656 267.802,217.181 267.867 C 216.904 267.904,216.595 267.986,216.494 268.048 C 216.394 268.110,215.787 268.237,215.146 268.330 C 214.506 268.423,213.523 268.582,212.963 268.682 C 210.753 269.078,209.221 269.260,207.927 269.281 C 207.183 269.293,206.324 269.357,206.019 269.422 L 205.463 269.541 205.370 279.631 L 205.278 289.722 201.481 289.722 L 197.685 289.722 197.637 279.730 C 197.611 274.234,197.515 269.664,197.425 269.573 C 197.335 269.483,196.190 269.338,194.880 269.250 C 192.316 269.079,191.124 268.946,189.815 268.681 C 189.356 268.589,188.451 268.430,187.803 268.328 C 187.154 268.227,186.538 268.091,186.433 268.026 C 186.329 267.961,186.026 267.882,185.760 267.850 C 185.308 267.796,183.990 267.470,181.389 266.768 C 173.324 264.593,162.554 258.906,156.117 253.426 C 155.639 253.019,154.546 252.088,153.688 251.358 C 151.977 249.900,149.065 246.959,147.771 245.382 C 147.316 244.828,146.643 244.036,146.275 243.623 C 142.825 239.748,137.634 231.194,135.479 225.833 C 135.192 225.120,134.849 224.287,134.717 223.981 C 134.222 222.843,132.453 217.267,132.133 215.833 C 132.087 215.630,131.970 215.130,131.873 214.722 C 131.308 212.360,131.116 211.424,130.923 210.093 C 130.805 209.278,130.591 207.882,130.447 206.991 C 130.303 206.099,130.185 204.792,130.185 204.086 C 130.185 203.380,130.104 202.588,130.005 202.327 L 129.824 201.852 119.819 201.852 L 109.815 201.852 109.815 198.056 L 109.815 194.259 119.804 194.259 C 126.069 194.259,129.834 194.192,129.904 194.079 C 129.965 193.980,130.092 192.918,130.186 191.718 C 130.342 189.723,130.555 188.111,131.099 184.815 C 131.449 182.691,132.499 178.374,132.891 177.447 C 133.032 177.113,133.148 176.680,133.148 176.486 C 133.148 176.292,133.222 176.087,133.312 176.032 C 133.402 175.976,133.518 175.700,133.569 175.419 C 133.651 174.963,133.762 174.617,134.265 173.241 C 134.618 172.274,135.052 171.176,135.185 170.913 C 135.266 170.753,135.605 169.961,135.939 169.154 C 141.120 156.622,153.286 142.900,164.907 136.481 C 165.519 136.144,166.310 135.688,166.667 135.468 C 173.292 131.382,185.645 127.575,194.722 126.824 C 196.046 126.714,197.236 126.594,197.367 126.557 C 197.554 126.503,197.601 124.833,197.592 118.476 C 197.586 114.069,197.584 110.399,197.587 110.320 C 197.590 110.242,199.322 110.200,201.435 110.228 L 205.278 110.278 205.370 118.422 M196.111 134.387 C 192.335 134.688,183.930 136.329,182.587 137.028 C 182.430 137.109,182.014 137.237,181.661 137.313 C 181.307 137.388,180.929 137.522,180.819 137.610 C 180.709 137.698,180.459 137.801,180.263 137.839 C 180.068 137.877,179.741 137.975,179.537 138.057 C 179.333 138.139,178.750 138.363,178.241 138.553 C 177.731 138.743,177.106 138.992,176.852 139.105 C 176.597 139.218,176.139 139.417,175.833 139.546 C 174.427 140.141,171.804 141.448,170.390 142.258 C 169.535 142.747,168.803 143.148,168.762 143.148 C 168.722 143.148,168.463 143.304,168.187 143.494 C 167.911 143.684,167.185 144.157,166.574 144.545 C 152.634 153.407,141.444 170.003,138.882 185.619 C 138.784 186.214,138.650 186.789,138.584 186.895 C 138.518 187.002,138.399 187.682,138.320 188.406 C 138.240 189.130,138.086 190.222,137.978 190.833 C 137.869 191.444,137.779 192.424,137.779 193.009 L 137.778 194.074 141.389 194.074 L 145.000 194.074 145.000 197.959 L 145.000 201.844 141.435 201.894 L 137.870 201.944 137.815 203.018 C 137.784 203.609,137.888 204.782,138.046 205.625 C 138.204 206.469,138.333 207.459,138.333 207.826 C 138.333 208.194,138.420 208.721,138.525 208.999 C 138.631 209.276,138.794 209.969,138.888 210.539 C 139.176 212.279,139.370 213.211,139.584 213.889 C 139.697 214.245,139.889 214.912,140.011 215.370 C 140.320 216.536,141.644 220.534,141.942 221.204 C 142.078 221.509,142.505 222.509,142.890 223.426 C 144.620 227.547,148.268 233.753,150.816 236.913 C 158.597 246.562,166.661 252.714,177.295 257.116 C 183.183 259.554,192.094 261.667,196.484 261.667 L 197.593 261.667 197.593 258.009 L 197.593 254.352 201.478 254.352 L 205.363 254.352 205.413 258.044 L 205.463 261.735 206.667 261.691 C 207.329 261.667,208.370 261.573,208.981 261.482 C 209.593 261.391,210.468 261.266,210.926 261.205 C 234.545 258.052,255.719 239.721,262.587 216.481 C 262.903 215.412,263.242 214.281,263.340 213.968 C 263.438 213.656,263.519 213.213,263.519 212.984 C 263.519 212.755,263.602 212.411,263.705 212.220 C 263.897 211.860,264.151 210.494,264.444 208.241 C 264.537 207.528,264.696 206.611,264.799 206.204 C 264.901 205.796,265.014 204.692,265.049 203.750 L 265.114 202.037 261.400 202.037 L 257.685 202.037 257.685 198.148 L 257.685 194.259 261.332 194.259 C 263.337 194.259,265.011 194.197,265.050 194.120 C 265.242 193.751,264.670 188.223,264.260 186.481 C 264.176 186.125,264.014 185.375,263.899 184.815 C 263.700 183.849,263.576 183.287,263.184 181.574 C 262.792 179.865,261.172 175.226,260.255 173.189 C 260.013 172.651,259.815 172.163,259.815 172.104 C 259.815 171.892,257.619 167.643,256.575 165.833 C 251.280 156.662,242.404 147.832,233.333 142.714 C 231.410 141.629,225.761 138.889,225.447 138.889 C 225.385 138.889,225.071 138.776,224.750 138.637 C 223.436 138.070,222.994 137.902,221.667 137.468 C 220.125 136.964,219.122 136.682,216.389 135.987 C 214.253 135.444,214.409 135.475,211.331 134.985 C 210.039 134.780,208.171 134.563,207.180 134.503 L 205.378 134.394 205.328 138.419 L 205.278 142.444 201.439 142.472 L 197.600 142.500 197.550 138.428 C 197.507 134.964,197.459 134.354,197.222 134.339 C 197.069 134.329,196.569 134.350,196.111 134.387 M221.990 158.613 C 225.696 159.316,226.872 160.110,233.057 166.082 C 235.908 168.835,238.256 171.030,238.275 170.960 C 238.294 170.890,238.405 170.349,238.522 169.757 C 239.061 167.030,242.197 165.974,246.432 167.093 C 252.581 168.718,251.689 174.475,244.950 176.657 L 244.252 176.883 246.939 179.477 C 250.165 182.592,251.182 183.890,252.500 186.574 C 254.732 191.122,254.856 191.999,254.773 202.650 C 254.695 212.656,254.582 213.245,252.149 216.375 L 251.296 217.472 251.294 220.727 C 251.291 227.197,249.677 228.431,241.383 228.303 C 235.151 228.208,233.148 226.896,232.831 222.703 L 232.724 221.296 201.455 221.296 L 170.185 221.296 170.185 222.189 C 170.185 224.765,168.825 226.814,166.389 227.908 C 165.034 228.516,156.359 228.400,154.984 227.756 C 152.331 226.511,151.671 225.120,151.668 220.766 L 151.667 217.551 150.814 216.417 C 148.347 213.135,148.279 212.781,148.194 202.778 C 148.076 189.050,148.816 186.767,155.621 179.868 C 158.091 177.364,158.524 176.846,158.227 176.749 C 151.347 174.506,150.262 168.733,156.419 167.129 C 161.184 165.888,163.984 166.993,164.534 170.329 L 164.664 171.122 169.091 166.811 C 175.989 160.094,177.325 159.181,181.218 158.530 C 183.042 158.224,220.342 158.301,221.990 158.613 M180.370 164.569 C 178.509 165.322,178.102 165.667,171.412 172.156 L 165.140 178.241 183.311 178.288 C 193.305 178.314,209.655 178.314,219.645 178.288 L 237.808 178.241 231.411 172.037 C 225.461 166.268,224.901 165.775,223.412 165.000 L 221.811 164.167 201.693 164.124 L 181.574 164.081 180.370 164.569 M156.508 187.222 C 151.520 189.016,151.106 196.138,155.851 198.508 C 157.739 199.450,166.872 199.443,169.938 198.495 C 173.706 197.332,172.591 194.520,166.844 190.693 C 162.075 187.518,158.771 186.408,156.508 187.222 M242.493 187.364 C 235.345 189.906,229.013 195.736,231.305 197.664 C 233.191 199.251,244.385 199.867,247.037 198.529 C 253.789 195.123,249.602 184.835,242.493 187.364 M177.037 195.447 C 177.037 199.145,179.233 203.313,181.808 204.502 L 182.685 204.907 201.481 204.907 L 220.278 204.907 221.172 204.467 C 223.685 203.230,225.525 199.899,225.864 195.972 L 225.980 194.630 201.509 194.630 L 177.037 194.630 177.037 195.447 M156.121 206.974 C 154.237 209.369,155.371 212.577,158.695 214.255 C 160.952 215.394,160.817 215.379,168.351 215.326 L 175.251 215.278 171.412 210.880 L 167.573 206.481 162.041 206.481 L 156.508 206.481 156.121 206.974 M234.697 207.269 C 233.531 208.490,227.778 215.144,227.778 215.270 C 227.778 215.332,231.007 215.359,234.954 215.330 L 242.130 215.278 243.714 214.516 C 247.553 212.672,248.855 209.533,246.842 206.974 L 246.455 206.481 240.951 206.481 L 235.447 206.481 234.697 207.269 M179.002 209.227 C 178.829 209.506,179.380 211.431,179.872 212.270 C 180.747 213.765,182.199 214.773,184.037 215.162 C 185.566 215.487,217.709 215.446,219.101 215.118 C 221.723 214.501,223.889 212.059,223.889 209.720 L 223.889 209.074 201.492 209.074 C 189.174 209.074,179.053 209.143,179.002 209.227 M117.593 300.000 L 117.593 309.259 127.222 309.259 L 136.852 309.259 136.852 300.000 L 136.852 290.741 142.130 290.741 L 147.407 290.741 147.407 314.077 L 147.407 337.413 142.176 337.364 L 136.944 337.315 136.896 327.824 L 136.848 318.333 127.221 318.333 L 117.593 318.333 117.593 327.870 L 117.593 337.407 112.315 337.407 L 107.037 337.407 107.037 314.074 L 107.037 290.741 112.315 290.741 L 117.593 290.741 117.593 300.000 M168.152 305.139 C 168.156 322.286,168.224 323.015,170.069 325.769 C 173.334 330.639,181.921 330.061,184.399 324.803 C 185.636 322.177,185.608 322.599,185.691 305.880 L 185.766 290.741 190.985 290.741 L 196.204 290.741 196.099 306.528 L 195.995 322.315 195.516 324.268 C 193.215 333.643,187.156 338.124,176.754 338.145 C 165.293 338.167,159.016 332.685,157.781 321.574 C 157.673 320.605,157.595 313.804,157.594 305.324 L 157.593 290.741 162.870 290.741 L 168.148 290.741 168.152 305.139 M222.957 298.657 C 225.761 302.960,229.889 309.289,232.130 312.723 C 234.370 316.156,236.716 319.787,237.342 320.791 C 237.968 321.795,238.510 322.645,238.546 322.682 C 238.582 322.718,238.588 315.546,238.560 306.744 L 238.509 290.741 243.421 290.741 L 248.333 290.741 248.333 314.074 L 248.333 337.407 243.074 337.407 L 237.816 337.407 232.502 329.306 C 229.580 324.850,225.026 317.912,222.383 313.889 C 219.739 309.866,217.281 306.053,216.920 305.417 C 216.559 304.780,216.251 304.259,216.234 304.259 C 216.217 304.259,216.228 311.718,216.257 320.833 L 216.311 337.407 211.396 337.407 L 206.481 337.407 206.481 314.071 L 206.481 290.735 212.170 290.784 L 217.858 290.833 222.957 298.657 M291.852 295.000 L 291.852 299.259 285.185 299.259 L 278.519 299.259 278.519 318.333 L 278.519 337.407 273.241 337.407 L 267.963 337.407 267.963 318.333 L 267.963 299.259 261.389 299.259 L 254.815 299.259 254.815 295.000 L 254.815 290.741 273.333 290.741 L 291.852 290.741 291.852 295.000 " stroke="none" fill="#0484f3" fill-rule="evenodd"></path></g></svg>